<?xml version="1.0" standalone="no"?>
<!DOCTYPE svg PUBLIC "-//W3C//DTD SVG 20010904//EN"
 "http://www.w3.org/TR/2001/REC-SVG-20010904/DTD/svg10.dtd">
<svg version="1.0" xmlns="http://www.w3.org/2000/svg"
 width="256.000000pt" height="256.000000pt" viewBox="0 0 256.000000 256.000000"
 preserveAspectRatio="xMidYMid meet">

<g transform="translate(0.000000,256.000000) scale(0.100000,-0.100000)"
fill="#000000" stroke="none">
<path d="M0 1280 l0 -1280 1280 0 1280 0 0 1280 0 1280 -911 0 c-604 0 -908
-3 -904 -10 3 -5 1 -10 -4 -10 -6 0 -11 5 -11 10 0 6 -11 3 -25 -6 -17 -11
-35 -14 -57 -10 -18 3 -39 7 -45 8 -7 1 -13 5 -13 10 0 4 -133 8 -295 8 l-295
0 0 -1280z m1074 1254 c9 -24 9 -24 -34 -24 -22 0 -40 -4 -40 -10 0 -15 -37
-12 -43 4 -8 21 2 26 50 26 24 0 43 5 43 10 0 16 17 12 24 -6z m-241 -11 c-7
-2 -19 -2 -25 0 -7 3 -2 5 12 5 14 0 19 -2 13 -5z m307 -15 c0 -10 -7 -18 -15
-18 -8 0 -15 8 -15 18 0 10 7 19 15 19 8 0 15 -9 15 -19z m-270 -14 c0 -17
-22 -14 -28 4 -2 7 3 12 12 12 9 0 16 -7 16 -16z m1180 -29 c0 -6 45 -10 116
-9 89 1 117 -2 121 -12 4 -10 26 -14 81 -14 41 0 73 -2 71 -4 -2 -3 -54 -6
-114 -7 -114 -1 -148 -8 -105 -20 19 -5 14 -7 -22 -8 -36 -1 -48 -5 -48 -16 0
-17 -2 -18 -24 -9 -9 3 -16 12 -16 20 0 8 -7 14 -15 14 -8 0 -15 -7 -15 -15 0
-9 -6 -12 -16 -8 -13 5 -13 7 -2 14 9 6 6 9 -10 9 -13 0 -21 -3 -19 -7 3 -5 0
-13 -7 -19 -8 -8 -15 -7 -23 2 -7 6 -9 14 -6 17 3 4 -6 9 -21 13 -14 3 -26 10
-26 14 0 17 32 32 60 28 16 -3 30 -1 30 4 0 7 -30 12 -57 9 -6 -1 -14 3 -18 9
-5 7 8 10 39 8 25 -2 46 -7 46 -13z m-1790 -9 c8 -2 -39 -3 -105 -3 -98 0
-107 2 -50 6 65 6 119 4 155 -3z m206 -52 c-3 -9 -6 -20 -6 -25 0 -5 -85 -9
-200 -9 l-200 0 0 25 0 25 206 0 c184 0 205 -2 200 -16z m1344 -28 c-6 -6 -18
-5 -32 2 -22 10 -21 11 9 9 21 -1 29 -5 23 -11z m247 -12 c-3 -3 -12 -4 -19
-1 -8 3 -5 6 6 6 11 1 17 -2 13 -5z m130 -9 c0 -18 -19 -15 -25 3 -2 7 3 12
11 12 7 0 14 -7 14 -15z m153 5 c0 -5 -4 -10 -10 -10 -5 0 -10 5 -10 10 0 6 5
10 10 10 6 0 10 -4 10 -10z m-556 -15 c4 -10 -1 -15 -14 -15 -11 0 -20 7 -20
15 0 8 6 15 14 15 8 0 16 -7 20 -15z m646 -205 c0 -5 7 -10 15 -10 8 0 15 -7
15 -15 0 -13 -21 -15 -125 -15 -104 0 -125 2 -125 15 0 12 17 15 95 15 57 0
95 4 95 10 0 6 7 10 15 10 8 0 15 -4 15 -10z m-1222 -399 c6 -1 12 -10 12 -21
0 -13 7 -20 20 -20 11 0 20 7 20 15 0 8 4 15 10 15 5 0 7 -7 4 -15 -5 -12 3
-15 32 -17 l39 -1 -37 -4 c-21 -2 -38 -8 -38 -14 0 -5 -18 -9 -39 -9 -33 0
-40 4 -43 23 -2 12 -9 21 -16 19 -8 -1 -11 2 -7 8 3 5 -2 10 -12 10 -14 0 -15
2 -4 9 7 5 21 7 30 6 9 -2 22 -4 29 -4z m139 -16 c0 -11 -4 -12 -14 -4 -10 9
-13 8 -13 -1 0 -8 -3 -11 -6 -7 -9 8 5 27 20 27 7 0 13 -7 13 -15z m23 -39 c0
-3 -4 -8 -10 -11 -5 -3 -10 -1 -10 4 0 6 5 11 10 11 6 0 10 -2 10 -4z m160 0
c0 -3 -4 -8 -10 -11 -5 -3 -10 -1 -10 4 0 6 5 11 10 11 6 0 10 -2 10 -4z m347
-128 l28 -11 -30 -7 c-19 -5 7 -8 75 -10 138 -2 235 -12 248 -25 3 -3 -69 -6
-159 -7 l-164 -2 195 -5 c266 -8 282 -24 30 -31 l-195 -6 220 -2 c146 -2 215
-6 205 -12 -13 -8 -12 -10 5 -12 11 -1 -83 -5 -210 -8 l-230 -6 233 -2 c146
-1 232 -6 232 -12 0 -5 12 -11 28 -12 15 -1 -38 -5 -118 -8 l-145 -6 131 -2
c94 -1 140 -6 160 -17 27 -14 23 -15 -86 -17 -102 -2 -105 -2 -30 -5 47 -2 95
-5 108 -8 39 -9 13 -25 -41 -25 -37 0 -48 -3 -37 -10 8 -5 41 -10 73 -10 31 0
57 -4 57 -10 0 -5 -6 -10 -12 -10 -34 -1 -133 -13 -137 -16 -2 -2 30 -4 72 -4
99 0 103 -19 5 -22 -40 0 -57 -3 -38 -5 86 -8 120 -15 120 -24 0 -5 -21 -9
-47 -9 -27 0 -55 -5 -63 -10 -11 -7 4 -10 50 -10 84 0 68 -18 -26 -29 -64 -8
-61 -11 16 -17 14 -1 34 -2 45 -4 39 -4 -26 -18 -95 -20 -71 -2 -59 -18 15
-19 30 -1 36 -4 25 -11 -8 -5 -53 -10 -99 -10 -99 0 -103 -9 -6 -15 62 -4 98
-13 64 -17 -8 0 -18 -2 -24 -3 -5 -2 -59 -4 -120 -5 -88 -2 -102 -4 -70 -11
22 -4 65 -8 95 -9 39 0 51 -3 40 -10 -9 -6 -149 -10 -344 -10 -181 0 -327 -2
-325 -4 4 -4 290 -14 479 -17 72 -1 79 -3 45 -10 -22 -4 -139 -8 -260 -8 -121
0 -245 -1 -275 -2 -54 -2 -55 -2 -15 -9 22 -4 30 -8 18 -9 -13 0 -23 -5 -23
-11 0 -5 -11 -10 -25 -10 -14 0 -25 -4 -25 -9 0 -14 55 -21 158 -21 130 0 108
-18 -28 -23 -58 -2 31 -3 198 -2 231 2 302 -1 302 -10 0 -16 -125 -24 -409
-27 l-226 -2 170 -6 170 -5 -190 -8 c-327 -14 -927 -8 -944 9 -2 2 56 4 129 4
73 0 131 2 129 4 -3 3 -203 13 -439 21 -42 2 -93 8 -113 13 -21 6 -44 9 -51 6
-7 -3 -23 0 -37 5 -23 9 -22 10 11 12 19 0 44 1 55 0 19 -1 19 -1 2 10 -10 6
-24 8 -31 6 -7 -3 -19 -1 -27 3 -8 6 13 9 57 9 38 0 74 1 79 2 6 2 20 -2 31
-9 12 -6 25 -8 30 -4 5 4 2 -1 -6 -11 -9 -12 -22 -17 -37 -14 -13 2 -23 0 -23
-4 0 -5 29 -9 65 -9 37 0 65 4 65 10 0 6 -11 10 -25 10 -28 0 -29 3 -16 29 7
13 19 16 45 13 20 -2 36 -8 36 -13 0 -5 9 -9 20 -9 11 0 20 5 20 11 0 6 -7 9
-15 5 -9 -3 -15 0 -15 9 0 12 17 15 80 16 95 2 96 2 106 12 4 4 -6 7 -22 7
-69 0 -101 25 -41 33 24 3 19 4 -18 6 -27 1 -58 8 -68 16 -18 13 -16 14 15 18
31 4 30 4 -8 5 -49 2 -80 28 -42 35 13 2 5 5 -19 6 -41 1 -73 21 -34 21 11 0
23 5 26 10 4 6 -9 10 -33 10 -53 0 -60 12 -15 26 l38 12 -40 2 c-22 1 -49 5
-60 10 -19 9 -19 9 3 16 31 9 28 24 -5 25 -16 0 -37 4 -48 9 -16 7 -11 9 22 9
60 1 65 21 6 22 -39 1 -43 3 -19 8 39 8 50 36 12 29 -17 -3 -25 -1 -23 6 4 13
75 29 100 22 9 -2 17 -1 17 4 0 12 -154 18 -163 6 -5 -7 -7 -4 -3 7 9 28 -3
43 -36 45 -37 3 -33 0 -42 35 l-6 27 56 0 c32 0 55 2 53 4 -5 6 -55 14 -86 15
-13 1 -23 6 -23 11 0 6 28 11 63 12 l62 1 -65 7 c-36 4 -58 8 -50 9 8 2 21 3
28 2 6 -1 12 3 12 9 0 5 -21 11 -47 11 -46 2 -46 2 -13 8 32 6 33 8 13 15 -34
11 -27 25 10 20 17 -3 38 -6 44 -6 9 -1 10 -5 2 -15 -15 -18 7 -18 25 0 14 14
114 15 182 2 28 -5 34 -9 23 -16 -9 -6 22 -9 86 -8 55 1 91 5 80 9 -11 4 -27
5 -35 2 -11 -4 -12 -2 -4 7 5 6 44 15 85 20 41 5 61 9 45 10 -16 0 -26 4 -22
9 7 6 267 13 783 20 136 1 211 -2 230 -10z m-1850 -45 c-3 -10 -5 -4 -5 12 0
17 2 24 5 18 2 -7 2 -21 0 -30z m323 -233 c0 -5 -4 -10 -10 -10 -5 0 -10 5
-10 10 0 6 5 10 10 10 6 0 10 -4 10 -10z m107 -12 c-3 -8 -6 -5 -6 6 -1 11 2
17 5 13 3 -3 4 -12 1 -19z m-57 -28 c0 -5 -4 -10 -10 -10 -5 0 -10 5 -10 10 0
6 5 10 10 10 6 0 10 -4 10 -10z m1490 -340 c0 -5 -5 -10 -11 -10 -5 0 -7 5 -4
10 3 6 8 10 11 10 2 0 4 -4 4 -10z m140 6 c0 -2 -7 -6 -15 -10 -8 -3 -15 -1
-15 4 0 6 7 10 15 10 8 0 15 -2 15 -4z m367 -83 c-20 -2 -52 -2 -70 0 -17 2 0
4 38 4 39 0 53 -2 32 -4z m-2120 -796 c3 -4 -23 -7 -60 -7 -36 0 -68 3 -71 8
-5 9 121 8 131 -1z"/>
<path d="M2033 2423 c9 -2 23 -2 30 0 6 3 -1 5 -18 5 -16 0 -22 -2 -12 -5z"/>
<path d="M938 1533 c7 -3 16 -2 19 1 4 3 -2 6 -13 5 -11 0 -14 -3 -6 -6z"/>
<path d="M1213 1533 c54 -2 139 -2 190 0 51 1 7 3 -98 3 -104 0 -146 -2 -92
-3z"/>
<path d="M1553 1533 c15 -2 39 -2 55 0 15 2 2 4 -28 4 -30 0 -43 -2 -27 -4z"/>
<path d="M1818 1533 c7 -3 16 -2 19 1 4 3 -2 6 -13 5 -11 0 -14 -3 -6 -6z"/>
<path d="M440 1500 c0 -6 17 -10 37 -10 43 0 41 5 -4 13 -19 4 -33 2 -33 -3z"/>
<path d="M588 1503 c7 -3 16 -2 19 1 4 3 -2 6 -13 5 -11 0 -14 -3 -6 -6z"/>
<path d="M1144 1425 c0 -49 1 -71 3 -48 2 23 2 64 0 90 -2 26 -3 8 -3 -42z"/>
<path d="M1533 1470 c0 -25 2 -35 4 -22 2 12 2 32 0 45 -2 12 -4 2 -4 -23z"/>
<path d="M1615 1470 c-9 -16 -13 -30 -11 -30 3 0 12 14 21 30 9 17 13 30 11
30 -3 0 -12 -13 -21 -30z"/>
<path d="M1489 1447 c26 -28 31 -32 31 -19 0 4 -13 16 -28 26 l-27 19 24 -26z"/>
<path d="M759 1423 l-34 -38 38 34 c34 33 42 41 34 41 -2 0 -19 -17 -38 -37z"/>
<path d="M478 1413 c6 -2 18 -2 25 0 6 3 1 5 -13 5 -14 0 -19 -2 -12 -5z"/>
<path d="M563 1413 c9 -2 25 -2 35 0 9 3 1 5 -18 5 -19 0 -27 -2 -17 -5z"/>
<path d="M1569 1393 c-8 -10 -15 -20 -15 -23 -1 -3 -11 -24 -23 -47 -12 -24
-19 -43 -16 -43 2 0 12 15 21 33 9 17 20 34 23 37 7 5 32 60 28 60 -1 0 -9 -8
-18 -17z"/>
<path d="M513 1365 c0 -10 4 -12 12 -5 6 5 44 11 85 13 l75 3 -86 2 c-70 2
-86 -1 -86 -13z"/>
<path d="M523 1333 c9 -2 23 -2 30 0 6 3 -1 5 -18 5 -16 0 -22 -2 -12 -5z"/>
<path d="M598 1333 c12 -2 32 -2 45 0 12 2 2 4 -23 4 -25 0 -35 -2 -22 -4z"/>
<path d="M1576 1315 c8 -37 14 -45 14 -19 0 10 -5 26 -10 34 -8 11 -9 7 -4
-15z"/>
<path d="M1400 1316 c0 -2 8 -10 18 -17 15 -13 16 -12 3 4 -13 16 -21 21 -21
13z"/>
<path d="M692 1290 c0 -14 2 -19 5 -12 2 6 2 18 0 25 -3 6 -5 1 -5 -13z"/>
<path d="M540 1250 c0 -5 5 -10 11 -10 5 0 7 5 4 10 -3 6 -8 10 -11 10 -2 0
-4 -4 -4 -10z"/>
<path d="M1480 1230 c-6 -11 -8 -20 -6 -20 3 0 10 9 16 20 6 11 8 20 6 20 -3
0 -10 -9 -16 -20z"/>
<path d="M993 1175 c0 -22 2 -30 4 -17 2 12 2 30 0 40 -3 9 -5 -1 -4 -23z"/>
<path d="M1144 1090 c0 -69 1 -97 3 -62 2 34 2 90 0 125 -2 34 -3 6 -3 -63z"/>
<path d="M1282 1180 c0 -19 2 -27 5 -17 2 9 2 25 0 35 -3 9 -5 1 -5 -18z"/>
<path d="M1416 1182 l-19 -27 24 22 c12 12 21 24 18 27 -2 2 -13 -8 -23 -22z"/>
<path d="M691 1184 c0 -11 3 -14 6 -6 3 7 2 16 -1 19 -3 4 -6 -2 -5 -13z"/>
<path d="M1582 1180 c0 -14 2 -19 5 -12 2 6 2 18 0 25 -3 6 -5 1 -5 -13z"/>
<path d="M1430 1140 c-11 -22 -18 -40 -15 -40 2 0 14 18 25 40 11 22 18 40 15
40 -2 0 -14 -18 -25 -40z"/>
<path d="M1561 1123 c-10 -26 -10 -27 4 -9 8 11 15 23 15 28 0 15 -7 8 -19
-19z"/>
<path d="M1514 1053 c-15 -20 -23 -33 -16 -29 13 8 56 66 49 66 -3 0 -17 -17
-33 -37z"/>
<path d="M1380 1050 c-6 -11 -8 -20 -6 -20 3 0 10 9 16 20 6 11 8 20 6 20 -3
0 -10 -9 -16 -20z"/>
<path d="M2128 1043 c7 -3 16 -2 19 1 4 3 -2 6 -13 5 -11 0 -14 -3 -6 -6z"/>
<path d="M780 1036 c0 -2 8 -10 18 -17 15 -13 16 -12 3 4 -13 16 -21 21 -21
13z"/>
<path d="M1688 1003 c28 -2 76 -2 105 0 28 2 5 3 -53 3 -58 0 -81 -1 -52 -3z"/>
<path d="M1968 1003 c7 -3 16 -2 19 1 4 3 -2 6 -13 5 -11 0 -14 -3 -6 -6z"/>
<path d="M2040 1006 c0 -2 11 -6 25 -8 13 -3 22 -1 19 3 -5 9 -44 13 -44 5z"/>
<path d="M1345 989 c-4 -6 -5 -12 -2 -15 2 -3 7 2 10 11 7 17 1 20 -8 4z"/>
<path d="M1406 884 c5 -62 14 -69 14 -11 0 25 -4 48 -9 51 -5 4 -8 -14 -5 -40z"/>
<path d="M1042 890 c0 -19 2 -27 5 -17 2 9 2 25 0 35 -3 9 -5 1 -5 -18z"/>
<path d="M1203 875 c0 -27 2 -38 4 -22 2 15 2 37 0 50 -2 12 -4 0 -4 -28z"/>
<path d="M1232 890 c0 -19 2 -27 5 -17 2 9 2 25 0 35 -3 9 -5 1 -5 -18z"/>
<path d="M1283 875 c0 -27 2 -38 4 -22 2 15 2 37 0 50 -2 12 -4 0 -4 -28z"/>
<path d="M1356 903 c-3 -10 -2 -31 3 -48 9 -28 9 -27 10 18 1 49 -4 60 -13 30z"/>
<path d="M1482 890 c0 -14 2 -19 5 -12 2 6 2 18 0 25 -3 6 -5 1 -5 -13z"/>
<path d="M771 873 c0 -10 3 -13 5 -6 3 6 17 9 32 7 15 -3 24 -2 21 1 -4 3 -18
8 -33 11 -20 3 -26 0 -25 -13z"/>
<path d="M1172 860 c0 -14 2 -19 5 -12 2 6 2 18 0 25 -3 6 -5 1 -5 -13z"/>
<path d="M713 833 c9 -2 23 -2 30 0 6 3 -1 5 -18 5 -16 0 -22 -2 -12 -5z"/>
<path d="M828 833 c12 -2 30 -2 40 0 9 3 -1 5 -23 4 -22 0 -30 -2 -17 -4z"/>
<path d="M1387 793 c18 -2 50 -2 70 0 21 2 7 4 -32 4 -38 0 -55 -2 -38 -4z"/>
</g>
</svg>
